<svg xmlns="http://www.w3.org/2000/svg" width="96.99" height="80.742" viewBox="0 0 96.99 80.742">
  <g id="features-icon03" transform="translate(-1.922 -8.958)">
    <path id="Path_3048" data-name="Path 3048" d="M77.2,56.9a4.274,4.274,0,0,0,2-.6,19.131,19.131,0,0,1,8.5-1.5c4.1.1,6.6,2.6,7.3,6.9a5.9,5.9,0,0,1-1.4,5.4c-.5.5-.9,1.1-1.4,1.6a4.714,4.714,0,0,0,1.5.6c1.8.1,3,1.5,4.4,2.4.7.4.7,1.6.8,2.5a4.817,4.817,0,0,1-1.6,4c-2.2,2.3-5,3.1-7.8,4.1a2.826,2.826,0,0,0-1.7,1.3,7.739,7.739,0,0,1-4.9,3.9,40.2,40.2,0,0,1-10.3,1.6c-8.5.2-17,.2-25.5.3-5,.1-10.1.1-15.1.2-2.6.1-5.2.1-7.9.1a8.675,8.675,0,0,1-2.8-.5L17.4,88a8.224,8.224,0,0,1-4.5-3.5,2.689,2.689,0,0,0-1.8-1.3c-1.6-.3-3.1-.6-4.7-1A5.76,5.76,0,0,1,2,77.5c-.4-2.1.8-3.6,2.3-4.9a12.448,12.448,0,0,1,5.6-2.2c.9-.2,1.8-.3,2.6-.4,1.7-.2,2-.7,1.5-2.3a34.929,34.929,0,0,1-1.6-10.1,7.772,7.772,0,0,0-.2-1.6,2.966,2.966,0,0,1,1.3-3.1,30.475,30.475,0,0,1,15.2-6.5c2.9-.4,5.9-.9,8.8-1.2a53.643,53.643,0,0,1,10.6-.1c3.8.4,7.6.5,11.4,1a29.006,29.006,0,0,1,11.8,3.3,18.945,18.945,0,0,0,2.1.9,4.5,4.5,0,0,1,3.2,4.3A7.006,7.006,0,0,1,77.2,56.9ZM88,58.8a.775.775,0,0,1,.2,1c-.8-.8-.8-.8-1.2-.2-.8-1.3-.8-1.3-2.3-1-.4.1-.8.4-1.2.1.7-.8,1.8-.4,2.6-1.1-.1-.1-.3-.2-.4-.3a.878.878,0,0,0-.7-.1c-2.6.7-5.2,1.2-7.2,3.2-.2.2-.4.4-.7.1,0-.5.5-.8.8-1.1.8-.5-.2-.5-.2-.8s-.4-.4-.6-.1c-.7.9-1.4,1.7-1.1,2.9h.3c.3-.1.5-.2.8-.3a14.505,14.505,0,0,1,7.1-1.3,3.693,3.693,0,0,1,2.4,5.4,8.183,8.183,0,0,1-3.9,3.2,36.865,36.865,0,0,1-6.5,1.8c-1.3.2-2.5.6-3.7.9.2.5.6,0,.7.4-1.1,1.1-2.8,1.7-2.5,3.8.1.3-.4.8,0,1.3a1.839,1.839,0,0,0,1.4.8,5.38,5.38,0,0,0,3.1-.5c-.6-2-.6-2.2.7-2.6-.3.7-1.1,1.3,0,1.9.2-.5-.2-1.2.8-1.5-.2.9,0,1.8,1.1,1.8s.4.7.3.9c-.2.5-.9.7-1.2.4-.8-.7-1.4-.1-2.1,0-1.8.4-3.7.5-5-1.2-.4.7.1,1.2.4,2-1.3-.7-.9-1.8-1-2.8-.8.6-1.5,1.1-2.1,1.6,1.3,1.8,2.8,2.9,5,2.6a46.561,46.561,0,0,0,6.5-1.2,2.919,2.919,0,0,0,1.6-1.1c.7-.9.6-1.5-.4-2-.5-.3-1.2-.4-1.1-1.2s.7-1,1.3-1.3a40.48,40.48,0,0,1,4.9-1.7,17.083,17.083,0,0,0,6-2.7,3.942,3.942,0,0,0,1.7-1.9c-2.1,1.2-4,2.7-6.6,2.6a9.909,9.909,0,0,0,4.5-2.7c3.1-3,3.1-3,2.9-4.3-.6.4-.7,1-1,1.5-.5.8-.8,1.6-1.8,1.9a14.23,14.23,0,0,0,1.6-4.5,10.348,10.348,0,0,0-2,4.7c-.9.1-1.2.9-1.6,1.6h0a3.237,3.237,0,0,1,.5-3.5.755.755,0,0,0-.1-1.3c-.3.1-.3.4-.4.6-.6.1-.6.5-1,.4A10.621,10.621,0,0,1,88,62c1.1,0,1.5.6,1.4,2,.8-1.7,2.1-2.8,1.1-4.5a1.643,1.643,0,0,0-.3-2.1A5.223,5.223,0,0,0,88.3,56c-1.5-.6-5.3,0-6.9,1a1.5,1.5,0,0,0,1.3.1,4.191,4.191,0,0,1,1.5-.4c1.1-.1,2.4-.5,3.3.6A6.606,6.606,0,0,0,88,58.8Zm-72.5.7h0A1.436,1.436,0,0,0,14,59c-.2,2,.4,3.8.7,5.6a2.349,2.349,0,0,0,1.8,1.9,15.524,15.524,0,0,1,2.1.4c1.7.3,3.3.6,5,1-2.7,0-5.3-.7-8.1-.9.2.8.3,1.4.5,2,.9,2.2,1.9,4.4,3.8,5.9a23.672,23.672,0,0,0,3.3,2.2,4.982,4.982,0,0,0,3.1,1.2,1.606,1.606,0,0,1,1.1.5,3.408,3.408,0,0,0,2.2.7,43.391,43.391,0,0,1,5.2.9c1.4.2,2.8.5,4.2.6,2.6.2,5.2-.3,7.9-.2,2.7.2,5.5-.7,8.1-1.6v-.3c.1-.4.4-.3.7-.4,1.7-.5,3.3-1,5-1.4.6-.1,1.1-.7,1.7-.6,0,.7-.6.6-.9.7l-3.9,1.2c-.4.1-.9.1-1.1.5-.4.7-1,.7-1.7.9-.4.1-1,.1-1.3.7a38.7,38.7,0,0,0,4.9-.5,15.662,15.662,0,0,0,5.5-1.9,15,15,0,0,0,5.5-5.4,9.064,9.064,0,0,1,1.3-1.9c1.9-1.8,2-4.2,3.1-6.6-1.3.4-2.2,1-3.3,1,1-.5,1.8-1.4,2.9-1.6a.9.9,0,0,0,.6-.6c.2-1.3.8-2.6.7-4-.6,0-.6,0-.5.8a.458.458,0,0,1-.4.5c-1.5-.1-2.7.8-4.1,1.1.2-.5.8-.5,1-.9-.1-.2-.3-.1-.4-.1a2.769,2.769,0,0,0-.9.1,71.284,71.284,0,0,1-11.4,1.8c-3.8.3-7.7.4-11.5.9-3.3.4-6.6-.1-10-.3-2.4-.1-4.8-.1-7.1-.4C24.7,61.7,20,61.2,15.5,59.5Zm9.1,20.3a2.309,2.309,0,0,0-1.4-1.2,12.356,12.356,0,0,1-5.5-4.3A21.955,21.955,0,0,1,16,71.8a1.234,1.234,0,0,0-1.5-.7c-2,.4-4.1.7-6.1,1.1a8.05,8.05,0,0,0-3.2,1.6,2.988,2.988,0,0,0-1,3.8c.9,2.3,3.2,2.9,5,4.1a21.579,21.579,0,0,0,2.7.5A101.8,101.8,0,0,0,26.6,84c5.5.4,11,.7,16.5.8,3.1,0,6.2-.1,9.3,0A182.5,182.5,0,0,0,72,83.6c3-.3,5.9-.7,8.9-.9a48.6,48.6,0,0,0,9.4-1.6,16.178,16.178,0,0,0,4.1-1.7,5.477,5.477,0,0,0,2.3-6.8,2.877,2.877,0,0,0-2.3-1.8c-1.2-.2-2.4-.3-3.5-.4a2.382,2.382,0,0,0-1.4.3A31.49,31.49,0,0,1,83,73a6.574,6.574,0,0,0-3.2,1.4c1.7.8,1.9,1.3,1.7,3.5a7.886,7.886,0,0,0,3.8-1.8,4.248,4.248,0,0,1,1.7-1,.486.486,0,0,1,.6.3c.1.2.2.5-.1.6-1.1.5-1.9,1.6-3.1,2L76,80.7c-2.8.9-5.6.3-8.5.6-3.5.4-7,.2-10.5.3a8.6,8.6,0,0,0-1.6.1c-2.9.2-5.8.6-8.7.6-3.3,0-6.6-.3-9.9-.5-3.3-.3-6.6-.2-9.9-.7-1.2-.2-2.4-.3-3.5-.4-2.2-.3-4.5-.2-6.7-1.1-.6-.2-1.8-.3-1.5-1.2.3-.8,1.3-.2,1.9.1C19.3,79.7,22,79.2,24.6,79.8ZM44.5,46c-2.3,0-4.5-.1-6.8,0a55.771,55.771,0,0,0-14.6,3,23.882,23.882,0,0,0-8.8,5.2,1.457,1.457,0,0,0-.5,1.2A2.627,2.627,0,0,0,15.4,58a19.968,19.968,0,0,0,5.3,2,75.789,75.789,0,0,0,8.1,1.3c4.4.4,8.8.6,13.2.8a126.2,126.2,0,0,0,15.1-.8c3.4-.2,6.8-.3,10-1.4a5.768,5.768,0,0,1,1.4-.3,10.361,10.361,0,0,0,6.6-3.2,3.814,3.814,0,0,0,.3-3.6c-.4-.6-.9.1-1.2-.3-2-2.2-4.7-3.3-7.4-4.3-3.9-1.4-8.2-1.5-12.3-2C51.2,45.8,47.9,46.1,44.5,46ZM15,84.1c.4,1.1,1.3,1.2,2,1.5,1.5.7,3.1.7,4.6,1.4a9.255,9.255,0,0,0,4.6.9c2.4-.1,4.9.1,7.3-.1a45.1,45.1,0,0,1,5.2,0c5.6.3,11.2,1,16.9.5,2.4-.2,4.8-.1,7.1-.3,4-.4,8-.7,12.1-.8a26.97,26.97,0,0,0,6.9-.7,11.91,11.91,0,0,0,3.2-1c1-.6,2-1.2,2.2-2.5a12.034,12.034,0,0,0-1.9,0c-3.8.9-7.7.8-11.5,1.3A150.718,150.718,0,0,1,56,85.7c-3.8,0-7.7.3-11.5.2-3.8,0-7.6-.4-11.4-.5C27.1,85.4,21.1,84.5,15,84.1ZM72.9,70a49.361,49.361,0,0,0,8.2-1.8A8.679,8.679,0,0,0,85,65.6a2.908,2.908,0,0,0,.4-3.3C85,61.2,84,61,82.9,61a5.829,5.829,0,0,0-2.9.6,18.868,18.868,0,0,1-3.3,1.3,2.076,2.076,0,0,0-1.6,1.4C74.3,66.1,74.1,68.1,72.9,70ZM59.5,80.6a20.5,20.5,0,0,0,4.3,0c1.2,0,2.5.3,3.8-.3-.4-.7-1.1-.9-1.4-1.5a.773.773,0,0,0-1.2-.3A31.624,31.624,0,0,1,59.5,80.6ZM93.4,60.5c-.3.5-.8.9,0,1.4.1.1.3.2.5-.1A11.215,11.215,0,0,0,93.4,60.5Zm-1.1,1a1.674,1.674,0,0,0,0-1.8ZM93.5,64c-.5.3-.8.7-.5,1.2,0,.1.2.1.3.1C93.7,65,93.7,64.6,93.5,64Z"/>
    <path id="Path_3049" data-name="Path 3049" d="M55.8,21.8a7.017,7.017,0,0,1-2.9-.3,3.243,3.243,0,0,1-2.5-3.4c-.4-4.7,4.3-8.8,8.2-8.8,1.1,0,2.1-.2,3.2-.3a8.927,8.927,0,0,1,8.9,4.3A16.517,16.517,0,0,1,72.8,18a8.848,8.848,0,0,1-3.4,9.2,16.951,16.951,0,0,0-2.9,3.1,12.448,12.448,0,0,1-2.1,1.9,55.829,55.829,0,0,0-4.8,3.7,18.369,18.369,0,0,0-5.3,6.7c-.2.4-.3,1.2-1,1-.6-.2-.3-.9-.2-1.4.6-3.8,2.9-6.5,5.7-8.9a23.986,23.986,0,0,1,3.7-2.5,24.03,24.03,0,0,0,6.3-6c1.8-2.5,2.1-7.6-1.3-9.8-1-.6-1.9-1.4-2.9-2a9.306,9.306,0,0,0-9.5.4,3.9,3.9,0,0,0-1.5,2.3c-.4,1.5.1,2.3,1.7,2.8,1.1.3,2.1.8,3.2,0,1.1-.9,1.1-1.5-.2-2a1.187,1.187,0,0,1-.9-1.3c.1-.8.8-.8,1.3-.8a4.671,4.671,0,0,1,1.7.3c1.9.6,2.3,1.6,1.8,3.5a4.812,4.812,0,0,1-4.1,3.5A15.52,15.52,0,0,1,55.8,21.8ZM53,13.7a7.084,7.084,0,0,0-1.7,3.6c-.2,1.6,0,2.2,1.4,2.9a8.312,8.312,0,0,0,6.9-.1,2.883,2.883,0,0,0,1.9-2.7c.1-1-.4-1.5-1.7-1.6a2.009,2.009,0,0,1,.6,1.7,3.431,3.431,0,0,1-4.3,2.4,6.943,6.943,0,0,0-1.3-.5,2.674,2.674,0,0,1-2.3-2.9A23.254,23.254,0,0,1,53,13.7ZM70.3,24.4c2.4-3.5,2.1-6.3-.7-10.8-1.7-2.7-5.6-3.9-9.8-3,1,.1,1.7.2,2.5.3,3.6.5,6,2.6,8,5.4a6.713,6.713,0,0,1,.6,1.5A12.473,12.473,0,0,1,70.3,24.4Zm-13.5,12,.3.3c1.8-1.5,3.7-3.1,5.5-4.6A13.818,13.818,0,0,0,56.8,36.4Zm1.1-25.9a4.865,4.865,0,0,0-3.1,1.3A8.055,8.055,0,0,0,57.9,10.5Z"/>
    <path id="Path_3050" data-name="Path 3050" d="M33.9,43.5a8.819,8.819,0,0,1,.2-2.9,11.533,11.533,0,0,0,.2-3.7,1.568,1.568,0,0,0-.9-1.4c-1.9-1.2-3.7-2.6-5.5-3.9a4.812,4.812,0,0,0-1.6-.8,14.837,14.837,0,0,1-3.8-2.3,3.969,3.969,0,0,1-1.4-2.4c-.4-2.6-.8-5.3.6-7.8,1.3-2.3,3-4.4,5.9-5.1,1.3-.3,2.6-.8,3.9-1a10.081,10.081,0,0,1,6.2,1.2,5.268,5.268,0,0,1,1.4,8.1,9.672,9.672,0,0,1-3.6,2.3,4.327,4.327,0,0,1-4.7-1.7,2.678,2.678,0,0,1-.2-2.3c.2-.5.6-.6.9-.2a2.371,2.371,0,0,0,1.5.9c1.1.2,3.5-1.4,3.8-2.5.2-.6-.2-1-.6-1.4a4.43,4.43,0,0,0-3.2-.8,26.6,26.6,0,0,0-2.8.3c-3,.9-5.4,2.5-6.3,5.6a3.782,3.782,0,0,0,1.2,4,11.994,11.994,0,0,0,5.3,3.1,10.439,10.439,0,0,1,4.9,3.3,4.012,4.012,0,0,1,1,2.4,16.411,16.411,0,0,1-1,7.3A2.752,2.752,0,0,1,33.9,43.5ZM31.7,21.1c.2.4.2.6.3.6,2.1,2,5.7,1.1,7.1-1.8a3.805,3.805,0,0,0-.4-4.2,6.078,6.078,0,0,0-3.9-2.3A11.759,11.759,0,0,0,24.7,16a8.116,8.116,0,0,0-2.9,7.7c.2,1.9.7,3.4,2.4,4.4a77.307,77.307,0,0,1,8.6,5.4A8.509,8.509,0,0,1,35.3,36a2.528,2.528,0,0,0-.3-2.8c-1.2-1.5-2.4-2.9-4.4-3.5a16.06,16.06,0,0,1-5.8-3,4.826,4.826,0,0,1-1.7-5.9,8.783,8.783,0,0,1,4.2-4.9,13.756,13.756,0,0,1,6.5-1.5,5.154,5.154,0,0,1,3.6,1.3,1.865,1.865,0,0,1,.3,2.8C36.2,20.7,34.5,22.1,31.7,21.1Z"/>
    <path id="Path_3051" data-name="Path 3051" d="M50.1,27.3c.2.9-.5,1.6-.5,2.4,0,.6-.1,1.2.6,1.5s1.3.6,2,0c.7-.7,1.7-1.1,1.6-2.4a3.25,3.25,0,0,0-2.2-3c-3-1.3-7.3.6-7.6,4.1a9.471,9.471,0,0,0,.9,5.5,5.631,5.631,0,0,1-3.3,7.9c-.3-.5,0-.9.2-1.3a8.486,8.486,0,0,0,1.1-2.6c.6-1.6.3-2.9-1.1-3.7-1.8-1-2-2.7-2-4.3a8.368,8.368,0,0,1,5.4-8.2,9.772,9.772,0,0,1,6.3-.8c3.1.8,5.3,2.9,4.9,5.8A14.117,14.117,0,0,1,55,32.6a3.513,3.513,0,0,1-2.4,1.7c-.4.1-.8.1-1.2.2-1.6.1-3.2.1-4.1-1.5-.8-1.4-.2-2.7.5-4A2.527,2.527,0,0,1,50.1,27.3Zm-6.7,8.6a16.46,16.46,0,0,1-.6-4.9c.4-3.6,1.5-5.1,5-6.1a7.726,7.726,0,0,1,3.7-.1,4.036,4.036,0,0,1,3.2,3.6c.2,1.8-.8,2.9-2.1,3.8a2.831,2.831,0,0,1-3.9-.7c-.2-.3,0-.8-.5-.8-.7,1.5-.6,1.8.6,2.6a4.1,4.1,0,0,0,5.9-2c.2-.7.3-1.4.5-2.1a3.629,3.629,0,0,0-1.1-3.9,5.277,5.277,0,0,0-4.3-1.8c-2.8.2-5.5.8-7.4,3.3a14.94,14.94,0,0,0-1.3,2.5,6.841,6.841,0,0,0-.2,4c.2,1.1,1.1,1.5,1.9,2C43,35.4,43.2,35.7,43.4,35.9Z"/>
    <path id="Path_3052" data-name="Path 3052" d="M80.3,29.8a5.086,5.086,0,0,0-4.9,2.6c-.5.8-1,1.7-1.5,2.4a13.534,13.534,0,0,1-6.3,4.8,10.855,10.855,0,0,0-6.2,5.5,1.38,1.38,0,0,1-.3.4c-.2.2-.4.3-.6.2a.713.713,0,0,1-.3-.6c.6-2.6,1.5-4.9,3.9-6.4a24.749,24.749,0,0,1,3.6-1.9,10.411,10.411,0,0,0,3.8-3.1c1.7-1.8,3-3.8,4.7-5.6a7.242,7.242,0,0,1,4-2.4,4.947,4.947,0,0,1,5.3,2,10.548,10.548,0,0,1,1.5,3,4.682,4.682,0,0,1-2.1,5.5c-2,1.4-3.7,1.5-5.6.1a13.028,13.028,0,0,0-1.5-1c-.4-.2-.7-.6-.4-1,.2-.4.6-.3.9-.1,1.4.6,2.7,0,4-.4a1.4,1.4,0,0,0,1-1.7,2.188,2.188,0,0,0-1.3-2A2.492,2.492,0,0,0,80.3,29.8Zm-.2,5.7c1.7,1.3,3,.6,4.3-.3a3.242,3.242,0,0,0,1.4-4.1,7.2,7.2,0,0,0-1.5-2.7,4.008,4.008,0,0,0-4.2-1.6,5.9,5.9,0,0,0-3.9,2.8.722.722,0,0,0,.9-.1,7.863,7.863,0,0,1,5-.6,2.1,2.1,0,0,1,1.1.4,3.452,3.452,0,0,1,1,3.4,2.671,2.671,0,0,1-2.5,2.2A3.977,3.977,0,0,0,80.1,35.5ZM62.8,41.1a16.149,16.149,0,0,1,3.3-2,18.861,18.861,0,0,0,4.6-2.6,6.167,6.167,0,0,0,2.8-3.9,24.527,24.527,0,0,1-8.6,6.6C64,39.7,63.1,40,62.8,41.1Z"/>
    <path id="Path_3053" data-name="Path 3053" d="M28.5,38.3c.2,2.2-.6,4.2-.8,6.2,0,.4-.2.8-.8.7-.5-.1-.4-.5-.4-.8.2-2.5-.6-4.8-1-7.2a2.622,2.622,0,0,0-.5-.9,7.739,7.739,0,0,0-6.2-2.5,2.372,2.372,0,0,0-2.1,2.3c0,.7.3,1,.9.6a3.408,3.408,0,0,1,2.2-.3A1.259,1.259,0,0,1,21,38.2a4.054,4.054,0,0,1-4,3,3.731,3.731,0,0,1-3.3-3.4,10.367,10.367,0,0,1,.8-5.2,3.148,3.148,0,0,1,2.6-2.1c1.4-.1,2.7-.8,4.2-.6,1.7.2,3.1,1.2,4.7,1.7a10.46,10.46,0,0,0,1.3,2.3C28.2,35.3,28.9,36.7,28.5,38.3Zm-1,1c0-1.6.3-3.1-1.2-4.1-.3-.2-.3-.7-.5-1a5.045,5.045,0,0,0-3.5-3,7.683,7.683,0,0,0-3.7.2A5.051,5.051,0,0,0,15,38.2c.8,1.8,2.3,2.3,3.9,1.4.8-.5,1.4-1.4,1-1.8-.6-.6-1.1-.1-1.7.2-1.4.8-2.6-.1-2.5-1.7a3.333,3.333,0,0,1,3.6-3.5,9.9,9.9,0,0,1,4.1,1,5.512,5.512,0,0,1,3.7,4.8C27.1,38.8,27,39.1,27.5,39.3Z"/>
    <path id="Path_3054" data-name="Path 3054" d="M87.6,57.4c2,.2,2.5.8,2.5,2.9,0,.5-.1.9-.1,1.5-.6-.6-.1-1.4-.4-2-.3.1-.2.6-.7.6-.4-.4.1-1.5-.8-1.6A2.654,2.654,0,0,1,87.6,57.4Z"/>
    <path id="Path_3055" data-name="Path 3055" d="M55,79c-1.4-.3-2.8.3-4.2-.3H55Z"/>
    <path id="Path_3056" data-name="Path 3056" d="M68.4,69.7c0-.5.5-.6.6-1.1-2.6.4-5.2,1.5-7.9,1.3,2.4-.5,4.8-1,7.2-1.7.6-.2,1.5,0,1.4-1.1,0-.3.4-.2.5-.1.3.2.6.5.2.9C69.9,68.5,69.6,69.5,68.4,69.7Z"/>
    <path id="Path_3057" data-name="Path 3057" d="M15.1,61.9c3.6,1.4,7.4,1.7,10.9,3C22.3,64.2,18.5,63.6,15.1,61.9Z"/>
    <path id="Path_3058" data-name="Path 3058" d="M59.3,73l4.5-1.2a6.861,6.861,0,0,0,3.4-1.4c.2-.2.4-.3.6,0a.521.521,0,0,1-.1.8.764.764,0,0,1-.5.2A35.739,35.739,0,0,1,59.3,73Z"/>
    <path id="Path_3059" data-name="Path 3059" d="M25.7,70.9a24.021,24.021,0,0,1-7.1-1.2,2.9,2.9,0,0,1-1.5-.9.52.52,0,0,1,0-.8c.3-.3.5,0,.6.2a3.969,3.969,0,0,0,2.4,1.4C21.9,70.3,23.8,70.3,25.7,70.9Z"/>
    <path id="Path_3060" data-name="Path 3060" d="M23.8,66.4c-2.1-.4-4.3-.8-6.4-1.3-.7-.2-1.4-.5-1.5-1.5C18.3,65.4,21.3,65.2,23.8,66.4Z"/>
    <path id="Path_3061" data-name="Path 3061" d="M24.2,73.4a11.614,11.614,0,0,1-5.5-1.5l-.6-.6c-.1-.1-.1-.3.1-.5.1-.1.4-.2.5-.1,1.1,1.9,3.3,1.6,5,2.4C23.7,73.3,24,73.3,24.2,73.4Z"/>
    <path id="Path_3062" data-name="Path 3062" d="M25.8,75.8c1,.8,2.2.6,3.3.8A12.859,12.859,0,0,1,31,77c-1.9.3-3.7-.2-5.5-.4A.466.466,0,0,1,25,76a.627.627,0,0,1,.8-.2Z"/>
    <path id="Path_3063" data-name="Path 3063" d="M62.1,75a9.8,9.8,0,0,1-5.3,1.4c1.8-.4,3.5-1.3,5.3-1.4Z"/>
    <path id="Path_3064" data-name="Path 3064" d="M66.1,62.6c-.7.9-.7.9-3.2.9C63.8,62.3,65.2,63.2,66.1,62.6Z"/>
    <path id="Path_3065" data-name="Path 3065" d="M25.8,75.8c-1-.8-2.3-.5-3.4-1.1l-.1.1c1.8-.5,3.3.6,4.9,1Z"/>
    <path id="Path_3066" data-name="Path 3066" d="M15.5,59.5c-.1,1-.1,1,1.2,1.9a2.119,2.119,0,0,1-1.9-.6c-.3-.2-.7-.6-.4-1,.3-.5.7-.6,1.1-.3Z"/>
    <path id="Path_3067" data-name="Path 3067" d="M62.1,75c1.1-.9,2.6-.8,3.9-1.3A6.758,6.758,0,0,1,62.1,75Z"/>
    <path id="Path_3068" data-name="Path 3068" d="M34.6,78.2c-1.1-.2-2.2.4-3.3,0a4.688,4.688,0,0,1,3.3,0Z"/>
    <path id="Path_3069" data-name="Path 3069" d="M64.1,67c-.6.3-1.1.1-1.7.2-.3,0-.5-.1-.5-.4,0-.1.1-.2.1-.3.2-.2.4-.3.5,0C62.9,67.3,63.8,66.4,64.1,67Z"/>
    <path id="Path_3070" data-name="Path 3070" d="M34.6,78.3a4.464,4.464,0,0,1,2.5.2,10.377,10.377,0,0,1-2.3.3c-.3,0,0-.4-.2-.5Z"/>
    <path id="Path_3071" data-name="Path 3071" d="M22.5,74.7a2.875,2.875,0,0,1-1.8-.7c.7,0,1.4,0,1.8.7Z"/>
    <path id="Path_3072" data-name="Path 3072" d="M71.3,63.2c.4-.7.8-.7,1.5-.5A6.606,6.606,0,0,0,71.3,63.2Z"/>
    <path id="Path_3073" data-name="Path 3073" d="M46.7,60.4c-2.8-.2-6.6.3-10.4.2a33.208,33.208,0,0,1-4.4-.6,20.278,20.278,0,0,0-4.3-.3,6.979,6.979,0,0,1-4-1.2,11.4,11.4,0,0,0-1.9-1c-.9-.4-1.8-.8-1.8-2,.1-1.2.3-2.5,1.5-3a24.4,24.4,0,0,1,5.3-2.1A96.314,96.314,0,0,1,46,48.6c5.3-.1,10.5.7,15.8,1a17.438,17.438,0,0,1,6.9,2.2,3.179,3.179,0,0,1,1.2,1.1,2.394,2.394,0,0,1-.8,3.4c-4.2,2.8-8.9,3.4-13.7,4C52.9,60.5,50.3,60.4,46.7,60.4ZM42.3,49.6c-1.4,0-2.9.2-4.3.2A34.4,34.4,0,0,0,22.3,54c-.5.3-.9.5-1,1.1-.1.7.4.9.9,1.2A17.6,17.6,0,0,0,28,58.4c1.8.3,3.6.4,5.5.7a96.214,96.214,0,0,0,14.2.3c3.2-.1,6.5-.3,9.8-.6a20.249,20.249,0,0,0,9.9-3.1c.2-.2.5-.3.7-.5,1.1-1.2.9-2.3-.7-2.9-.4-.2-1-.1-1.4-.3a12.136,12.136,0,0,0-5.2-1.6c-1.5-.2-3.2-.7-4.6-.1a6.113,6.113,0,0,1-4,.1C49.1,49.7,45.6,49.8,42.3,49.6Z"/>
    <path id="Path_3074" data-name="Path 3074" d="M84.1,69.5c-.1.1-.1.4-.4.5A26.137,26.137,0,0,0,77,72.7c-.7.4-.7-.6-1.3-.3-.8.4-1.7.6-2.6,1.1A3.928,3.928,0,0,1,75.2,72c2.8-.9,5.5-1.7,8.3-2.6.2-.1.4.1.6.1Z"/>
    <path id="Path_3075" data-name="Path 3075" d="M84.2,69.5a1.007,1.007,0,0,0-.1-.3c1.2-.9,2.3-2,4-1.5h0c-1.3.7-2.8.9-3.9,1.8Z"/>
  </g>
</svg>
