<svg xmlns="http://www.w3.org/2000/svg" width="85.41" height="69.751" viewBox="0 0 85.41 69.751">
  <g id="features-icon02" transform="translate(-7.297 -15.129)">
    <path id="Path_3042" data-name="Path 3042" d="M9.4,80.678s0-.007-.007-.009C9.3,80.586,9.253,80.538,9.4,80.678Z"/>
    <path id="Path_3043" data-name="Path 3043" d="M42.157,53.086c.165.079.539-.043,1.143-.505a11.917,11.917,0,0,0,2.316-2.146c1.811-2.417,3.208-5.084,5.068-7.471.22-.282-.768-.068-.922.1a22.723,22.723,0,0,0-2.283,3.082c.08-.348.16-.695.255-1.037.229-.817.491-1.625.771-2.427a5.182,5.182,0,0,0,.583-1.885c-.021-.318-.89.043-.98.192a18.955,18.955,0,0,0-1.716,4.432,28.544,28.544,0,0,1-.953,3.5,10.048,10.048,0,0,1-2.392,2.736.054.054,0,0,0,.016-.063C42.21,52.212,41.872,52.949,42.157,53.086Z"/>
    <path id="Path_3044" data-name="Path 3044" d="M79.091,23.633c.472-.51-.631-.164-.8-.057-2.72,1.742-5.094,4.622-7.385,6.88-2.035,2.006-5.353,4.859-6.177,7.643-.039.131.485.078.555,0,1.756-2.009,3.379-4.06,5.186-6,.452-.222.912-.422,1.386-.6,1.228-.475,2.507-.819,3.747-1.266a15.876,15.876,0,0,0,3.13-1.455c.262-.164,2.157-1.692,1.54-1.738-.076-.006-1.381.313-.863.031A29.46,29.46,0,0,1,75.37,28.8,27.294,27.294,0,0,0,72.548,30C74.746,27.892,77.018,25.871,79.091,23.633Z"/>
    <path id="Path_3045" data-name="Path 3045" d="M49.577,52.438c-.1.146.348.13.409.1,1.257-.627,10.093-5.739,9.126-7.119C58.371,44.358,50.146,51.563,49.577,52.438Z"/>
    <path id="Path_3046" data-name="Path 3046" d="M92.444,45.536c-1.735.032-6.055.68-6.824-1.452-.27-.748-1.176-1.207-1.809-1.526-1.51-.763-5.6.171-6.107-1.607a.174.174,0,0,0-.189-.127,3.007,3.007,0,0,1-3.193-.369c-.145-.087-.322.034-.438.11-.962.639-2.678,2.172-3.4,1.2.224.3,3.587-1.386,3.969-1.582A20.98,20.98,0,0,0,78.1,37.82c2.333-1.9,3.456-4.418,5.372-6.639.605-.7.9-1.528,1.428-2.275.541-.765.4-1.672.7-2.508.209-.573,1.134-1.459.572-2.069-.469-.509.646-1.938.78-2.277a64.693,64.693,0,0,0,1.909-6.413c.185-.664-.462-.566-.82-.338a24.487,24.487,0,0,0-3.417,2.691,9.284,9.284,0,0,1,.068-1.47c.035-.534-.621-.305-.845-.127-1.195.951-3.259,3.127-3.219.3.013-.918-1.223.207-1.375.45a13.583,13.583,0,0,1-2.185,2.872q.083-.8.165-1.608c.111-.8-.644-.529-1.016-.166a20.825,20.825,0,0,0-2.411,3.39c-.092-.447-.182-.9-.273-1.343-.154-.869-1.195.12-1.387.481-.807,1.525-1.487,3.106-2.291,4.626a11.005,11.005,0,0,1-.8-2.3c-.169-.764-1.4.659-1.479.9A23.047,23.047,0,0,1,66,27.833c-.349-.253-.7-.5-1.038-.77-.515-.393-1.26.706-1.4,1.062a22.338,22.338,0,0,0-1.285,5.16c-.089.729-.588,4.1.347,4.4-.776.5-1.154,1.411-1.771,2.064q-.969,1.028-2.024,1.969A24.369,24.369,0,0,1,54.509,45c1.94-3.163,2.352-6.725,3.927-10.017.794-1.657,1.966-3.167,2.612-4.892.549-1.463-.156-1.474-1.271-.74A50.476,50.476,0,0,0,54.8,33.5c.273-.554,1.5-2.149.4-2.031-.9.1-1.947,1.683-2.526,2.239.056-1.214.256-3.51-1.25-1.745-1.236,1.448-2.214,3.136-3.44,4.609-.162-.906.1-3.407-1.278-2.169-1.07.963-1.322,3.115-1.827,4.421-.3-1.48-1.536.258-1.783.823A20.348,20.348,0,0,0,42.066,45.1c-1.614-2.132-2.391,1.438-2.656,2.7-.47,2.242-.041,4.487-.346,6.728-.453,3.329-3.827,5.428-6.437,7.034a21.8,21.8,0,0,0-4.329,3c2.644-.441,5.384-2.688,7.595-4.115,2.9-1.871,4.741-4.334,4.759-7.855.009-1.8.01-3.564.195-5.358.739,1.339,1.487,1.968,2.223.3.714-1.619.543-3.725.8-5.457,1.53.01,2.2-3.107,2.6-4.1.1,1.708,1.5.113,1.983-.437a35.832,35.832,0,0,0,2.844-3.814c-.011.556-.433,1.819.165,1.988.5.142,1.295-.771,1.622-1.021-.8,2.366,1.154.559,2.025-.192,1.505-1.3,2.948-2.662,4.468-3.943-1.068,2.6-2.6,4.939-3.571,7.594a39.017,39.017,0,0,1-1.744,4.309,14.086,14.086,0,0,1-1.213,2.005c-.338.459-1.119,1.02-1.272,1.569.584.367,1.426.01,1.958-.338.5.786,5.133-2.838,5.723-3.305a17.741,17.741,0,0,0,4.838-5.628c.162-.312-.334-.211-.7-.053a39.125,39.125,0,0,1,.873-7.206c.23.176.455.359.689.528.373.278.936-.339,1.118-.589a15.568,15.568,0,0,0,1.757-3.195c.212.532.458,1.051.728,1.606.319.658,1.208-.444,1.368-.695a34.856,34.856,0,0,0,2.106-4.037c.051.249.1.506.165.788.136.64.778.221,1.065-.079a17.113,17.113,0,0,0,1.985-2.866c-.033.369-.063.757-.094,1.243-.035.541.608.29.836.133a11.416,11.416,0,0,0,2.822-2.888c.006.341.013.682.031,1.022.012.376.355.392.628.264a17.766,17.766,0,0,0,3.347-2.164,9.147,9.147,0,0,0,.043,1.516c.041.671.809.18,1.046-.054.851-.834,3.288-4.145,2.473-.967a18.1,18.1,0,0,1-1.278,3.585c-.26.521-.681.957-.92,1.488a12.14,12.14,0,0,0-.434,2.033,9.71,9.71,0,0,1-.364,1.351,9.915,9.915,0,0,1-1.341,1.794c-.358.492-.272.937-.454,1.381-.213.525-.736.816-1.121,1.283A7.024,7.024,0,0,0,80,33.444c-.274.508-.873.81-1.272,1.284-.611.726-.586,1.368-1.427,1.938A19.538,19.538,0,0,1,74.527,38.2a52.779,52.779,0,0,1-5.9,2.164c-.613.2-1.754,2.205-.653,2.006.249-.045.492-.108.739-.159-.224.29-.813,1.222-1.241,1.275-.853.106-.151-.7-.7-.88s-4.634,4.817-4.371,2c.029-.3-.2-.314-.432-.192C58.96,46,57.352,48.721,54.69,50.8c-.409.319-1.112,1.6-.084.994a11.732,11.732,0,0,0,2.6-2.121c.7-.731,3.951-4.837,3.406-1.661-.063.366.3.274.49.163,1.03-.6,4.354-3.862,4.445-2.746.015.158.229.138.321.1a8.422,8.422,0,0,0,2.98-2.155c-.474.529.68,1.07,1.037,1.032a11.028,11.028,0,0,0,2.309-1.024c1.213-.473,3.852-1.407,4.379.467a.174.174,0,0,0,.191.125c2.527.045,5.792-.236,7.454,2.063.966,1.336,2.557,1.713,4.24,1.806-1.384.835-2.676,1.865-3.992,2.76a29.593,29.593,0,0,1-10.653,4.687c-3.229.7-6.535,1.064-9.8,1.55-1.9.282-3.481-.823-5.209-1.37-.7-.22-2.946-.438-3.443.274-.8,1.148,3.584,2.037,4.194,2.259a46.39,46.39,0,0,0-6.847.385c-3.543.458-11.738,1.695-13.367,5.848-.067.3-5.728-.347-6.233.01A34.911,34.911,0,0,1,43.913,59.3c3.675-1.059,7.626-1.762,11.034-3.553.665-.351.707-1.172,1.413-1.508a9.793,9.793,0,0,1,1.857-.421c.864-.209,1.74-.369,2.609-.554a12.725,12.725,0,0,1,5.337-.481c1.148.243,3.113,1.34,4.228.46,1.282-1.012-.839-1.388-1.563-1.468a31.032,31.032,0,0,0,4.929-.984c.7-.228,2.229-.695,1.133-1.368-1.129-.692-3.519-.118-4.708.1-1.718.309-3.407.776-5.1,1.206a38.6,38.6,0,0,1,5.479-2.559c.562-.234,4.032-1.656,2.857-2.483-1.2-.846-4.926,1.266-5.951,1.855-1.449.835-2.56,2.064-3.921,3.015a13.022,13.022,0,0,1-3.3,1.719c-1.143.374-2.429.335-3.511.894a20.327,20.327,0,0,1-3.2,1.55c-1.5.487-3,.955-4.509,1.423-2.989.931-5.981,1.855-8.93,2.911-3.3,1.18-8.716,3.222-9.828,7,.423.145.843-.257,1.291-.358,1.234-.278,2.534.3,3.748.445a4.8,4.8,0,0,0,4.142-1.182.978.978,0,0,0,.5-.2c3.119-4.339,10.694-4.693,15.581-4.728,3.693-.025,7.359-.057,10.938.994,1.367.4,2.729,1.169,4.1,1.712-.478.093-.934.18-1.332.215-.522.047-1.535,1.589-1.2,2.068,1.023,1.457-8.256,2.365-9.765,2.37-.413,0-.922.709-1.139,1.321a18,18,0,0,1-3.354.431c-.313.017-.656.375-.9.8-1.454.193-2.875.535-4.35.626-1.727.107-3.311-1.279-4.786-1.967a2.169,2.169,0,0,0-2.842.832c-.391.479-4.739-1.9-5.32-2.146-4.011-1.66-6.925-.03-10.516,1.73a38.562,38.562,0,0,0-9.417,5.979A31.059,31.059,0,0,0,11.639,79.5s-.714-.677-.808-.762c1.474-1.38,3.282-2.5,4.832-3.822,1.586-1.352,3.13-2.752,4.675-4.15,2.413-2.183,6.822-6.39,7.011-10.085,2.241.206,4.847-2.345,6.233-3.733a7,7,0,0,0,2.25-5.548.3.3,0,0,0-.459-.274q-2.356-.657-1.587-2.376c.06-.276-.1-.686-.453-.493-.491.27-1.984,1.5-2.054.133a22.26,22.26,0,0,1,.43-6.115c.144-.629-.4-.566-.757-.27A16.534,16.534,0,0,0,25.1,51.587a12.807,12.807,0,0,0-5.589-2.23c-.634-.126-1.532,1.58-1.195,2.073a25.068,25.068,0,0,0,3.694,4.032c1.6,1.514,2.445,3.549,3.907,5.035a.332.332,0,0,0,.239.069A31.413,31.413,0,0,1,17.5,71.583c-2.793,2.382-6.75,4.691-8.642,7.932a2.359,2.359,0,0,0-.717.86c-.533,1.025-1.236,2.662-.573,3.8a1.739,1.739,0,0,0,2,.631,3.8,3.8,0,0,0,2.381-2.17,2.871,2.871,0,0,0,.242-1.861c3.855-6.9,11.607-9.3,18.35-12.553a.689.689,0,0,0,.14-.1c3.251.89,5.99,2.979,9.311,3.518.45.074.791-.537.993-.852.714-1.121,4.4,1.445,5.2,1.723,2.045.711,4.679-.45,6.757-.568.3-.017.633-.354.878-.76a15.486,15.486,0,0,0,3.915-.836,1.991,1.991,0,0,0,.818-.872c3.454-.233,11.205-1.278,11.512-4.455a7.1,7.1,0,0,0,4.321-1.361c.084-.067.458-.4.342-.559.084-.029.169-.052.253-.086.27-.111,1.514-1.172.9-1.434a44.6,44.6,0,0,0-9.754-2.942c2.729-.4,5.45-.8,8.146-1.425,6-1.388,11.529-5.491,16.3-9.352.4.289.414.218,1.1-.076C92.1,47.6,93.211,45.522,92.444,45.536Zm-69.2,7.695a7.729,7.729,0,0,1,1.545,1.3c.586.648,1.463-1.061,1.49-1.515A13.229,13.229,0,0,1,29.954,44.5a32.719,32.719,0,0,0-.166,6.587.3.3,0,0,0,.441.28c1.6-.612,1.564-1.085,1.783.383.087.584.237,1.82,1.1,1.835,2.508.04-.756,2.831-1.488,3.4-1.389,1.071-2.948,1.981-4.417,2.958a.532.532,0,0,0-.294-.009C27.03,57.165,25.212,55.146,23.243,53.231ZM10.7,82.668Zm-.347-.122a.8.8,0,0,1-.7.119c-1.065-.255-.751-1.439-.378-2.13.006-.012,1.072,1.159,1.132,1.26A.547.547,0,0,1,10.355,82.546Z"/>
    <path id="Path_3047" data-name="Path 3047" d="M57.84,62.249c.2-.145.726-.6.359-.85-1.211-.814-3.066.069-4.378.45a14.853,14.853,0,0,0-5,2.5c-.116,0-.234,0-.35-.016-2.557-.245-4.84-.873-7.387-.168-.22.062-1.531,1.131-.913,1.254,2.746.546,5.555,1.021,8.334,1.352a7.382,7.382,0,0,0,6.257-1.911c.169-.137.313-.4.029-.484a12.35,12.35,0,0,0-4.159-.071c1.015-.261,2.04-.478,3.069-.719C55.242,63.229,56.555,63.19,57.84,62.249Z"/>
  </g>
</svg>
