<svg id="features-icon01" xmlns="http://www.w3.org/2000/svg" width="95.666" height="75.292" viewBox="0 0 95.666 75.292">
  <path id="Path_3041" data-name="Path 3041" d="M23.473,19.045l-10.63,3.1Zm6.643,38.532v0ZM73.964,55.8l1.329,10.187ZM70.421,19.93l9.3,2.214Zm-21.7,11.958a3.348,3.348,0,0,1-.443-1.772c0-.886.443-.886.443-1.772-.443-1.329-1.329-2.657-1.329-3.543a10.424,10.424,0,0,0-.886-3.543A14.744,14.744,0,0,1,45.175,18.6,5.647,5.647,0,0,1,43.4,15.944c-.443-.886-.886-1.329-.886-2.214-.443-.886-1.329-1.772-1.772-2.657-1.329-1.772-1.329-1.329-3.1-2.214-.443-.443-1.329-.443-1.329-.886-.886-1.329-.886-1.329-1.772-1.772a.953.953,0,0,1-.886-.886C32.774,3.986,31.889,4.429,31,3.543c-.886-.443-2.214-1.329-2.657-.886-1.329,0-2.214,0-3.1-.886-.443-.443-.443,0-1.329,0S21.7.886,20.816.443C19.487.443,19.045,0,17.716,0H15.5c-.886,0-1.329.443-2.214.443S11.515.886,10.63.886a7.537,7.537,0,0,0-3.1.443H7.086c-.886.886-.886.443-2.214.886-.886,0-1.329.443-2.214.886-.886,0-1.329,0-1.772.443H0V5.758C.443,7.086,0,8.415,0,9.744a.434.434,0,0,0,.443.443,13.081,13.081,0,0,0,.886,5.758c.443.443.443.886.886,1.772a1.546,1.546,0,0,1,.443.886,11.577,11.577,0,0,1,1.329,3.543c.443,1.329,1.329.886,1.772,2.214.443.443.443,1.329.886,1.772.443,0,.886,0,1.329.886s.443,1.772,1.329,2.214v.443a7.776,7.776,0,0,0,2.214,1.772c.886.443,1.329,1.329,1.772,1.772a6.715,6.715,0,0,0,3.543,1.772A4.644,4.644,0,0,1,18.6,36.317c.886.886,2.657.886,3.986,1.329.886.443,1.329.886,2.214.886,1.329.443,3.543.443,4.872.886h4.872c-.443.443-1.329.443-2.214.886H30.56a18.465,18.465,0,0,0-2.657.886c-1.772.886-1.772.886-2.657,2.214-.443.443-.886.886-1.329.886-.886,0-.886.443-1.772.886,0,.443-.443.443-.886.886-1.329.443-1.329.886-2.214,1.772-.443.443-1.329.886-1.329,1.772a5.9,5.9,0,0,1-1.329,2.214c-.443,0-.443.443-.443.886-.443.886-1.329,1.772-1.772,2.657s-.886,1.329-.886,2.214c-.443.886-.886,1.329-.886,1.772a3.993,3.993,0,0,1-.443,2.214v2.214a5.617,5.617,0,0,0-.443,2.657v.443c.443.886.443.886,0,1.772v4.429a3.319,3.319,0,0,0,2.214.443c.886,0,1.772.886,3.1.886a.434.434,0,0,0,.443.443c1.329,0,3.1.443,4.872.443a1.627,1.627,0,0,1,1.329-.443H24.8a6.567,6.567,0,0,1,3.1-.443c1.329,0,1.329-.886,2.214-.886a2.663,2.663,0,0,0,1.772-.443c.443,0,.443-.443.886-.443.886-.443,1.772-.443,2.657-.886h0c.886-.443,1.329-.886,2.214-1.329.443-.443,1.329-.443,1.772-.886l2.657-2.657.886-.886c1.329-.443,1.772-2.214,2.657-3.1.443-.886.886-.886,1.329-1.772s.886-2.657,1.329-3.543c.886-1.329.886-2.657,1.329-3.986A7.144,7.144,0,0,0,50.933,49.6,21.589,21.589,0,0,0,52.7,54.476a8.9,8.9,0,0,1,1.772,3.543,40.85,40.85,0,0,1,2.214,3.543l1.772,1.772c.886.886,1.772,2.657,3.1,3.1.443,0,.443.443,1.329.886a11.743,11.743,0,0,0,2.657,2.214c.886.443,1.329.443,2.214.886s1.329.886,2.214,1.329h.443a5.617,5.617,0,0,1,2.657.443c.886,0,.886,0,1.329.443s.886,0,1.772,0,1.329.886,2.214.886a9.752,9.752,0,0,1,3.543-.443,1.627,1.627,0,0,1,1.329.443h1.772c1.772,0,3.1-.886,4.872-1.329h.886c.886-.443,1.772-1.329,3.1-1.329l1.772-.886V67.763c-.443-.886,0-1.772-.443-2.657a2.663,2.663,0,0,1-.443-1.772c0-.443,0-.443.443-.443,0-.886-.886-1.772-.886-2.657-.443-.886,0-1.772-.443-2.657s-.443-1.329-.886-2.214c0-.443-.443-.886-.886-1.772s-.886-1.329-1.329-2.214a11.742,11.742,0,0,1-2.214-2.657c0-.443,0-.443-.443-.886-1.329-.443-1.329-.886-1.772-2.214,0-.886-1.329-1.329-1.772-1.772-1.329-.886-1.329-1.329-2.657-1.772-.443,0-.886,0-.886-.443a11.367,11.367,0,0,0-2.214-.886c-.443,0-.886-.443-1.329-.886a19.257,19.257,0,0,0-3.1-1.772c-.886,0-1.772-.443-2.657-.443H69.535c-1.329,0-2.214-.443-3.1-.443H64.663l.443-.443a11,11,0,0,0,3.986-.443c.886,0,1.329-.443,2.214-.443.886-.443,2.657-.886,3.543-1.772a3.405,3.405,0,0,1,1.329-.886,9.378,9.378,0,0,0,3.1-1.329l1.329-1.329,1.772-1.772.443-.443c.443-.443.443-1.329,1.329-1.772,0-.886.443-.886.886-.886.443-.443.443-.886.886-1.329.443-1.329.886-.886,1.329-2.214a28.226,28.226,0,0,0,.886-3.1c.443,0,.443-.443.886-.886,0-.443.443-.886.443-1.329.886-1.329.886-3.1.886-4.872v-.443c.443-1.329,0-2.214,0-3.1.443-.886.443-.886,0-2.214h-.443a1.627,1.627,0,0,0-1.329-.443c-.886-.443-1.329-.886-2.214-.886a2.663,2.663,0,0,1-1.772-.443H84.15c-.443-.443-1.772-.443-2.657-.443s-1.329-.443-2.214-.443A19.182,19.182,0,0,0,77.064,3.1c-.443,0-.886.443-1.772.443H72.635a4.748,4.748,0,0,1-2.657.886c-.443,0-.886,0-.886.443a4.8,4.8,0,0,1-2.657.443c-.886,0-1.772.886-2.214.886-.886.886-1.329.443-2.214,1.772-.443.443-.443.443-.886.443-.886.886-.886.443-1.329,1.329-.443.443-.886.886-1.329.886-1.329.886-1.772.886-2.657,2.214a3.766,3.766,0,0,0-1.329,2.214c-.443.886-.886,1.329-.886,1.772a27.127,27.127,0,0,0-1.772,2.657,3.383,3.383,0,0,0-.886,2.214,4.749,4.749,0,0,0-.886,2.657c0,1.329-.886,2.214-.886,3.1-.443.886,0,.886,0,1.772A15.661,15.661,0,0,0,48.719,31.889Zm-7.972,7.086h0A22.249,22.249,0,0,0,46.5,36.76c.443,0,.443-.443.886-.443.443-.443-.443-.443-.443-.443-1.329-.443-1.772.443-3.1.886a1.627,1.627,0,0,1-1.329.443h-.443c-.886.443-1.772.443-2.657.886h-.886c-.886.443-2.214,0-3.543,0a3.348,3.348,0,0,0-1.772.443,22.853,22.853,0,0,1-4.872-.886c-.886,0-1.329-.443-2.214-.443a28.225,28.225,0,0,1-3.1-.886,7.483,7.483,0,0,0-2.214-.886c-.886-.443-1.329-.443-1.772-.886-.443,0-.886-.443-1.329-.886-.886-.443-1.772-.443-2.657-1.329l-.886-.886c-.886-.443-1.329-1.329-2.214-1.772L10.187,27.9C9.3,27.46,9.3,27.46,8.858,26.574a7.776,7.776,0,0,1-1.772-2.214c-.443-.443-.443-.443-.443-.886-.886-.886-.886-1.772-1.329-2.657-.443,0-.443,0-.443-.443L3.543,17.716a11.267,11.267,0,0,1-.886-3.1l-.443-.443h0c-.443-1.329-.443-2.214-.886-3.543V7.972c.443-.886,0-1.772.886-1.772,0-.443,0-.443.443-.443,1.772.443,2.214,1.329,3.1,2.214.886.443,1.772,1.329,1.329,1.772-.443,0-.886.443,0,0a.83.83,0,0,0,0-1.329C6.2,7.972,5.758,7.972,5.315,7.086,4.872,6.643,4.429,6.2,3.986,6.2c.443,0,.886.886,1.329,1.329A9.681,9.681,0,0,1,7.529,8.858v.886C5.758,11.072,4.872,10.187,3.1,12.4c-.443.443,0,0,.443,0,.443-.443.443-.886,1.329-1.329H6.2l1.772-.886c.443-.443.443-.443,1.329,0,.443,0,.443.443.886.443l3.986,2.657c-.443,0-.886.443-1.329.443a28.225,28.225,0,0,0-3.1.886c-1.329,0-1.772.443-3.1.886-.443,0-.886.443-1.329.443s-.886.443-1.329.443H5.315c1.329-.443,1.772-.886,3.1-1.329H10.63c1.329-.443,2.214-.886,3.543-1.329h.443l.886.443,3.986,2.657h.443c-.443.443-.886.443-1.772.886-.443.443-.886.443-1.772.443a4.748,4.748,0,0,1-2.657.886,4.021,4.021,0,0,0-3.1,1.329,10.424,10.424,0,0,1-3.543.886s-.443.443,0,.443,1.329-.443,1.772-.443a11.367,11.367,0,0,0,2.214-.886c.443-.443,1.329-.443,1.772-.886h1.772l.443-.443c.443,0,.886-.443,1.772-.443a1.627,1.627,0,0,0,1.329-.443c.886,0,1.329-.443,2.657-.886h0c.886.886,2.214,1.329,3.1,2.214.886.443,1.772,1.329,2.657,1.772h0a3.993,3.993,0,0,1-2.214.443,1.546,1.546,0,0,1-.886.443,6.3,6.3,0,0,0-2.657.886,8.634,8.634,0,0,1-3.543.443c-.886.443-1.329.443-2.214.886-1.329.886-2.214.443-3.986.886-.443,0-1.329.443-1.329.886-.443,0,0,.443,0,0,.443-.443,3.1-.443,3.986-.443,1.329-.443,2.214-.886,3.543-1.329s2.214-.443,3.543-.886c1.772-.443,3.1-.886,4.429-1.329a7.537,7.537,0,0,1,3.1.443c.443,0,.443,0,0-.443,0,0-.443-.886-.886-.886v-3.1a3.319,3.319,0,0,1-.443-2.214v-3.1a12.932,12.932,0,0,1-.886-3.986V7.972a4.676,4.676,0,0,0-.886-2.214v.886a12.262,12.262,0,0,0,.443,3.986,3.993,3.993,0,0,1,.443,2.214c.443,1.329,0,2.214,0,3.1.443,1.772.443,3.543.886,5.315l-.443-.443c-.443-.443-1.329-.886-1.772-1.329s-.886-.443-1.329-.886l-2.214-1.329V15.944h0a5.617,5.617,0,0,1-.443-2.657V12.4a12.262,12.262,0,0,1-.443-3.986c0-.443,0-.443-.443-.886V5.758a3.993,3.993,0,0,0-.443-2.214s-.443-.886-.443-.443a12.262,12.262,0,0,1,.443,3.986c0,.886.443,1.329.443,1.772V12.4c.443.886,0,1.772.443,2.657V16.83a9.265,9.265,0,0,0-2.657-1.772c-.886-.886-1.772-1.329-2.657-2.214A11.007,11.007,0,0,0,14.616,9.3a5.617,5.617,0,0,0-.443-2.657c0-.886.443-2.657,0-3.543,0,0-.443-.886-.443-.443a3.993,3.993,0,0,1,.443,2.214,6.106,6.106,0,0,0,0,3.986c0,1.329.443,2.657.443,3.543a13.459,13.459,0,0,1-3.1-2.214C9.3,8.858,8.858,8.858,8.858,6.2c0-.886.443-1.329-.443-2.214-.443-.443,0,.443,0,.443V7.086c0,.443.443,1.772-.443,1.329-.443-.443-.886-.886-1.329-.886C6.2,7.086,5.315,6.643,4.872,6.2A2.3,2.3,0,0,0,3.1,5.315V4.872c-.443-.443.886-1.329,1.329-1.329S5.758,3.1,6.2,3.1c.443-.443.443-.443.886-.443.443-.443.886-.443,1.772-.443a6.4,6.4,0,0,1,3.1-.886h7.086c.886.443,1.329.443,2.214.886h.886c.886.443,1.772.443,2.657.886a1.627,1.627,0,0,1,1.329.443c1.329,0,1.772.443,3.1.886.443.443,1.329.886,1.772,1.329.443,0,.443,0,.886.443.886.443,1.329,1.329,2.657,1.772s1.772,1.772,3.1,2.214h0a3.458,3.458,0,0,1,1.772,1.772,6.114,6.114,0,0,1,1.329,1.772,1.546,1.546,0,0,1,.443.886,5.647,5.647,0,0,1,1.772,2.657c.443,0,.443.443.443.886s.443.443.443.886c.443.443.443.443.443.886a3.383,3.383,0,0,1,.886,2.214,6.3,6.3,0,0,1,.886,2.657v.886c0,.443.443,1.329.443,1.772a11,11,0,0,1,.443,3.986c0,.886,0,1.329-.886.886h0c-1.329-.443-3.986-1.329-4.429-2.214s-.443-3.543-.886-4.872c0-.886-.443-1.772-.443-2.657a12.932,12.932,0,0,1-.886-3.986c0-1.329,0-4.429-.886-5.758h0a2.663,2.663,0,0,1,.443,1.772v3.543a5.617,5.617,0,0,0,.443,2.657,4.816,4.816,0,0,0,.443,2.214A8.8,8.8,0,0,1,40.3,27.9h0c-.443.443-.443.886-1.329.886h-.443c.443.443.443,0,0,0-.886-.886-2.214-1.329-3.1-2.214-1.772-.886-1.772-.886-1.772-3.1a3.348,3.348,0,0,1-.443-1.772c0-.886.443-1.772.443-2.657a12.262,12.262,0,0,0-.443-3.986c0-.443,0-3.986-.443-4.429v.886c.443.886,0,2.657,0,3.543a14.593,14.593,0,0,1,0,6.2c-.443.443-.443.886-.443,1.772-.443.886,0,1.329-1.329.886a6.114,6.114,0,0,1-1.772-1.329c-.886,0-.443,0,0,.443h0c.443.443,2.214,1.329,2.214,1.772.443.443-.443.443-.886.886-1.329.443-1.772.443-3.1.886a3.993,3.993,0,0,0-2.214.443c-1.772,0-3.1.886-4.872,1.329-.443,0-1.329.443-2.214,0,0,0-.886.886.443.886,1.772-.443,3.986-1.329,6.2-1.772a4.816,4.816,0,0,0,2.214-.443h2.657c.443-.443.886-.443,1.772-.886h.886c.886-.443,1.329,0,1.772.443.443,0,.443,0,.886.443.443,0,.886.443,1.329.886.443,0,2.657,1.329,2.657,2.214,0,.443-.886.886-1.329,1.329a10.577,10.577,0,0,1-3.986.886,9.752,9.752,0,0,1-3.543.443,5.617,5.617,0,0,1-2.657.443,3.348,3.348,0,0,0-1.772.443h0c-.886,0-.886.443-1.329.443l-.886.443h.886c.443-.443.886-.443,1.772-.886s2.214,0,3.1,0a12.262,12.262,0,0,1,3.986-.443,4.816,4.816,0,0,0,2.214-.443h0a19.182,19.182,0,0,0,2.214-.443,7.537,7.537,0,0,1,3.1-.443,3.993,3.993,0,0,1,2.214.443.434.434,0,0,0,.443.443.434.434,0,0,0,.443.443l1.329,1.329c.886.886.886.886,1.772.886s.886.443,1.329.443h.886l-.443-.886.443-.443V34.1h0c.443,0,.443-.443,1.329-.443a1.627,1.627,0,0,0,1.329-.443l1.329-1.329v-.443c.443,0,.443,0,.886-.443a1.627,1.627,0,0,1,1.329-.443c.886,0,2.214.443,3.1.443.443,0,.886.443,1.772.443h0a3.993,3.993,0,0,1,2.214.443h3.1a5.617,5.617,0,0,1,2.657.443c.886,0,1.329.443,1.772.443a.613.613,0,0,0,.886,0h-.886a1.627,1.627,0,0,0-1.329-.443v-.443H67.32a5.617,5.617,0,0,0-2.657-.443,8.647,8.647,0,0,1-3.1-.443,10.424,10.424,0,0,1-3.543-.886.953.953,0,0,1-.886-.886c0-.886,1.772-1.772,2.657-2.214l.886-.886h.443a2.663,2.663,0,0,1,1.772-.443h.886a1.627,1.627,0,0,0,1.329.443,5.617,5.617,0,0,0,2.657.443c.443,0,1.329.443,1.772.443l5.315,1.329c.886,0,.443-.443,0-.443s-1.329-.443-1.772-.443l-3.986-1.329H67.32c-1.329-.443-1.772-.443-3.1-.886,0,0-.886-.443-.443-.886,0-.443,1.329-.886,1.772-1.329h0c.443,0,.443-.443,0-.443-.443.443-.886.886-1.329.886-1.329.886-.886.443-1.329-.443a1.627,1.627,0,0,0-.443-1.329V12.4c-.443.443-.443,3.543-.443,3.986v7.086c0,1.772,0,1.772-1.772,2.657-.886.443-1.772,1.329-2.657,1.772-.443,0-.443.443,0,0h-.443c-.443,0-.886,0-.886-.886h0c-.443-1.329,0-3.1,0-3.986a3.348,3.348,0,0,0,.443-1.772,3.993,3.993,0,0,0,.443-2.214v-3.1c0-.886.443-.886.443-1.329.443-.443,0-.443,0-.443-.886.886-.886,3.986-.886,4.872a9.752,9.752,0,0,1-.443,3.543c-.443.886-.443,1.772-.886,2.657a12.262,12.262,0,0,1-.443,3.986C54.476,30.117,52.262,31,51.376,31h0c-1.329.443-1.329,0-.886-.886,0-1.329-.443-2.214,0-3.1,0-.886.443-1.329.443-1.772V24.8a4.748,4.748,0,0,1,.886-2.657,2.3,2.3,0,0,1,.886-1.772V19.93a1.627,1.627,0,0,0,.443-1.329.434.434,0,0,0,.443-.443c.443-1.329.886-1.329,1.772-2.657l.443-.443c.443-.443.443-1.329.886-1.772a6.114,6.114,0,0,1,1.772-1.329h0c.886,0,1.329-1.329,2.657-1.772.886-.443,1.329-1.329,2.214-1.772l.443-.443c.886-.443,1.329-.443,1.772-.886A18.465,18.465,0,0,0,68.206,6.2c.443,0,.443-.443.886-.443a5.617,5.617,0,0,1,2.657-.443c.443,0,.443,0,.886-.443a2.663,2.663,0,0,0,1.772-.443h6.2a5.617,5.617,0,0,1,2.657.443,1.627,1.627,0,0,0,1.329.443c.443.443.443.443.886.443s.886.443,1.329.443c.443.443,1.329.886,1.329,1.329h-.443c-.443.443-.886.443-1.329.886L85.036,9.744c-.443,0-.886.443-1.329.443-.443.443-.443-.443-.443-.886a3.993,3.993,0,0,0,.443-2.214s0-.886-.443-.443c-.443.886,0,1.329,0,2.214,0,2.214-.886,2.214-2.657,3.1-.886.886-1.772,1.329-2.657,2.214a8.647,8.647,0,0,0,.443-3.1,4.89,4.89,0,0,0,0-3.543,3.993,3.993,0,0,1,.443-2.214l-.443.443v3.1c0,.886-.443,1.772-.443,2.657s-.443,1.772-.443,3.1a9.681,9.681,0,0,1-2.214,1.329,9.661,9.661,0,0,1-2.214,1.772,2.663,2.663,0,0,1,.443-1.772V11.072c0-.886.443-.886.443-1.772a9.752,9.752,0,0,1,.443-3.543l-.443.443a3.348,3.348,0,0,0-.443,1.772V9.744c0,.443-.443.443-.443.886v3.1c0,.443,0,.886-.443.886v2.657a1.372,1.372,0,0,1-.443.886l-1.772,1.329c-.443,0-.443.443-.886.443-.443.443-1.329.886-1.772,1.329h0a12.262,12.262,0,0,1,.443-3.986V14.616a3.319,3.319,0,0,1,.443-2.214c.443-1.329,0-2.214.443-3.543V7.972a4.676,4.676,0,0,0-.886,2.214v.886a11.267,11.267,0,0,1-.886,3.1v4.872a19.182,19.182,0,0,1-.443,2.214,1.546,1.546,0,0,1-.443.886c-.443.443-.443.443,0,.443,1.329-.443,1.329-.443,2.214,0a10.577,10.577,0,0,1,3.986.886c1.329.443,2.214.443,3.543.886.886,0,1.772.886,2.657.886s3.1,0,3.543.443h0c0-.443-.886-.886-1.329-.886a9.752,9.752,0,0,1-3.543-.443c-.443-.443-.886-.443-1.772-.886a7.537,7.537,0,0,1-3.1-.443c-.443-.443-1.329-.443-2.214-.886h-.886c-.443-.443-.886-.443-1.772-.443h0a9.661,9.661,0,0,0,2.214-1.772,19.257,19.257,0,0,1,3.1-1.772h0c.886.443,1.329.443,2.214.886.443,0,.443,0,.886.443a2.663,2.663,0,0,1,1.772.443h0c.886,0,1.329,0,1.772.443a1.627,1.627,0,0,1,1.329.443,11.367,11.367,0,0,0,2.214.886h1.329c-.886-.443-2.214-.443-3.1-.886a3.157,3.157,0,0,0-2.657-1.329c-.886,0-1.329-.443-2.214-.443a3.348,3.348,0,0,0-1.772-.443c-.443-.443-.886-.443-1.329-.886h.443a24.567,24.567,0,0,1,3.543-2.657h.886a28.226,28.226,0,0,1,3.1.886,3.348,3.348,0,0,0,1.772.443,4.748,4.748,0,0,1,2.657.886h1.329c-.443,0-.886,0-.886-.443-.443,0-.886-.443-1.329-.443a5.617,5.617,0,0,0-2.657-.443c-.886-.443-1.772-.443-2.657-.886a1.546,1.546,0,0,1-.886-.443c.886-.886,2.214-1.329,3.1-2.214.443,0,.443-.443.886-.443a.83.83,0,0,1,1.329,0c.443.443.443.443,1.329.443.443.443.443.443.886.443.886,0,.886.443,1.329.886s.443.443.443,0c-1.329-1.772-2.214-.886-3.986-2.214V10.63c.443-.443,1.329-.443,1.772-.886l1.329-1.329c-.443.443-.443.886-.886.886-.886.443-.886.886-1.772,1.329a.83.83,0,0,0,0,1.329c.443,0,.443-.443,0-.443-.443-.443.443-.886.886-1.329,1.329-.886,1.772-1.772,3.1-1.772h.443a1.627,1.627,0,0,1,.443,1.329V12.4c-.443.886-.443,1.772-.886,2.657V15.5h0c-.443.886-.443,2.214-.886,2.657l-1.329,2.657v.443c-.443.886-.886,1.329-1.329,2.214a1.372,1.372,0,0,1-.443.886c-.443.443-.886,1.329-1.329,1.772-.443.886-.443.886-1.329,1.329l-1.329,1.329a6.114,6.114,0,0,0-1.772,1.329c-.443.443-.886.886-1.329.886a6.114,6.114,0,0,0-1.772,1.329c-.443,0-.886.443-1.329.886-.443,0-.886.443-1.329.443-.886,0-1.329.443-2.214.443a14.745,14.745,0,0,1-2.657,1.329,4.816,4.816,0,0,0-2.214.443c-.886,0-2.657.443-3.986.443-.443,0-.886-.443-1.329-.443a3.783,3.783,0,0,1-3.1,0h-.886a3.319,3.319,0,0,0-2.214-.443h0a1.627,1.627,0,0,0-1.329-.443c-1.329-.443-1.772-1.329-3.1-.886h0l.886.886a18.51,18.51,0,0,0,4.429,1.772,25.254,25.254,0,0,0,5.758.443c-.443,0-.443,0-.886.443-.886.443-2.214,0-3.1,0a6.492,6.492,0,0,0-1.772.886c-.443.443-2.214.443-3.543.886l-.443.443h-.443l-.443.443v.443c0,.443.886.443,1.329.886,0,.886,0,.886.886,1.329.443.443.886.443,1.772.886h.443l.443.443q1.329.664,1.329,1.329a28.225,28.225,0,0,1,.886,3.1,2.663,2.663,0,0,0,.443,1.772h0a19.182,19.182,0,0,0,.443,2.214c.443,1.329.443,2.214,1.329,3.1,0,1.329.886,2.214.886,3.1v1.772c0,.886.443.886.443.886s-.443,0-.443-.886v-3.1c-.443-.886-.443-1.329-.886-2.214-.443-1.329-.443-2.214-.886-3.543a11,11,0,0,1-.443-3.986c0-.443,0-1.329.443-1.329.443-.443,2.657,1.329,3.1,1.772.443,0,.886.443,1.329.886h.443a2.3,2.3,0,0,1,.886,1.772v.886c.443.443.443.886.443,1.772s.443,1.329.886,2.214a3.993,3.993,0,0,0,.443,2.214c.443,1.772.443,3.986.886,5.758.443.886.886,0,.443,0,0-.443-.443-1.329-.443-1.772a18.167,18.167,0,0,0-.443-4.872,3.348,3.348,0,0,1-.443-1.772,8.647,8.647,0,0,1-.443-3.1c0-.443-.443-1.329,0-1.329.886,0,2.214,1.329,2.657,1.329V52.7s.886,0,0-.443c-.443-.443-.886-.443-1.329-.886-1.329-1.329-.886-.886,0-1.772.443-.443.886-.443,1.329-.886A11.959,11.959,0,0,1,73.521,46.5a26.3,26.3,0,0,0,3.543-1.772h.443c-.443-.443-3.1.886-3.986,1.329s-2.214.443-3.1,1.329c-.886,0-1.329.443-2.214.886-.443,0-.886.443-1.329.443-2.214.886-2.214.886-3.986-.443A9.265,9.265,0,0,1,60.234,46.5h0a.434.434,0,0,0-.443-.443,1.627,1.627,0,0,1,.443-1.329h.443A6.183,6.183,0,0,1,64.663,43.4a3.993,3.993,0,0,1,2.214-.443c.886-.443,1.329-.443,2.214-.886.443,0,.886-.443,1.329-.443.443-.443,1.329-.443,1.772-.886h1.329c-1.329-.443-3.986.443-4.872,1.329-1.329.443-2.214.443-3.543.886a7.537,7.537,0,0,0-3.1.443c-.886,0-3.1.886-3.986.886s-3.1-1.772-3.543-2.657h0c-.886-.886-.443-1.329.443-1.329,1.329-.443,2.214-.886,3.543-1.329h1.772a.434.434,0,0,1,.443-.443,5.617,5.617,0,0,0,2.657-.443,5.617,5.617,0,0,1,2.657.443h2.214a6.567,6.567,0,0,1,3.1.443h1.329a1.627,1.627,0,0,0,1.329.443c1.329.443,1.772.443,2.214.886v.443c.886.443,2.214.443,3.543,1.329a4.422,4.422,0,0,0,2.214,1.772c.443,0,.443.443.886.443a6.114,6.114,0,0,0,1.772,1.329c.886.886.886,1.329,1.772,2.214l.886.886a9.682,9.682,0,0,1,1.329,2.214c.443,0,.443.443.886.443.443.886.443,1.329.886,1.772s.886.443.886.886c.443.886.443,1.329.886,1.772,0,.443,0,.886.443.886v.443a2.3,2.3,0,0,0,.886,1.772,7.537,7.537,0,0,1,.443,3.1v2.657a2.663,2.663,0,0,1,.443,1.772c0,.443-.443,1.772-.886,1.329h0l-1.772-.886a6.114,6.114,0,0,0-1.772-1.329,1.546,1.546,0,0,1-.886-.443c-.886-.443.443-.886.443-.886.886-.443,1.772-.443,2.657-.886,0,0,.886-.443.443-.443-1.329,0-1.329.443-2.214.886-2.214.886-2.657,0-4.429-.886a11.1,11.1,0,0,0-3.1-1.772,8.211,8.211,0,0,1,3.1-.886,13.26,13.26,0,0,0,3.543-1.772,3.993,3.993,0,0,1,2.214-.443h-.443a8.211,8.211,0,0,0-3.1.886c-.886.443-1.772.443-2.657.886a10.424,10.424,0,0,0-3.543.886c-.443-.443-1.329-.886-2.214-1.772l-2.657-1.329a2.663,2.663,0,0,1,1.772-.443c.886-.443,1.329-.886,2.214-.886l2.657-1.329h1.772a18.23,18.23,0,0,1,3.543-1.329h-.443a2.663,2.663,0,0,0-1.772.443c-.886,0-1.329.443-1.772.443H84.15A30.516,30.516,0,0,1,80.607,55.8h-.886c-.886.443-1.329.443-2.214.886h0a1.627,1.627,0,0,0-1.329.443l-1.772-1.772c-.443,0-.886-.443-1.329-.443-.443-.443-1.329-.886-1.772-1.329h-.443c1.772-.443,3.1-.886,4.429-1.329s1.772-.886,2.657-.886a5.617,5.617,0,0,1,2.657-.443c1.329-.443,2.214-.886,3.543-1.329l.443-.443a4.816,4.816,0,0,0-2.214.443,1.372,1.372,0,0,0-.886.443,11.007,11.007,0,0,0-3.543.443c-.443,0-.886.443-1.329.443-.443.443-.886.443-1.329.886-.886,0-1.329.443-2.214.443-.886.443-1.772.443-2.214.886a2.187,2.187,0,0,0-1.329-.443c-.443,0-.443,0,0,.443.886.886.443.886.886,2.214s.443,2.657.886,3.986c0,1.772.443,2.657.443,3.986a7.537,7.537,0,0,0,.443,3.1c0,.886.886,3.1.443,3.543,0,.443.443.443.443,0a2.663,2.663,0,0,0,.443-1.772c-.443-1.329-1.329-2.214-.886-3.543a3.993,3.993,0,0,0-.443-2.214c0-.886-.443-1.772-.443-3.1a5.617,5.617,0,0,0-.443-2.657V55.8c0-.443-.443-1.329-.443-1.772h0l2.657,1.329a18.75,18.75,0,0,0,3.1,2.214h0v3.986a1.627,1.627,0,0,1,.443,1.329v.443c0,.443.443.886.443,1.772v3.986c0,.443,0,1.329.443,1.329h0c0-.886-.443-2.214-.443-3.1a3.783,3.783,0,0,0,0-3.1c-.443-1.329,0-1.772-.443-3.1v-3.1h.443c1.329.886,2.657,2.214,3.986,2.657l.443.443v.443c0,1.329.443,2.657.443,3.543a3.993,3.993,0,0,0,.443,2.214c.443.886,0,1.772,0,3.1l.443.886V68.649a4.8,4.8,0,0,0-.443-2.657,8.646,8.646,0,0,0-.443-3.1V61.563a40.848,40.848,0,0,0,3.543,2.214l.886.886c.443.443.886.443.443,1.329-.443.443,0,.886,0,1.329s.443.886.443,1.329c0,.886-.443.886-.443,1.772-.443.443,0,.443,0,0,1.329-2.214,0-2.657.443-4.429,0-.443.443-.443.886-.443.443.443,1.329.886,1.772,1.329.886.443,1.329.443,1.772.886-.443-.443-.886-.443-1.329-.886l-1.772-.886c-.443-.443-.886-.443-1.329.443,0,.443.443,0,.443,0,0-.886,1.329,0,1.772,0,.886.886,2.214.886,3.1,2.214v.443c0,.886-.886.886-1.329,1.329a6.3,6.3,0,0,1-2.657.886,6.567,6.567,0,0,1-3.1.443h0l-.443.443h-6.2a4.8,4.8,0,0,1-2.657-.443h-.886c-1.329,0-1.772-.443-2.657-.443a6.493,6.493,0,0,1-1.772-.886c-.886-.443-1.329-.443-2.214-.886a9.681,9.681,0,0,0-2.214-1.329c-.443,0-.886-.443-1.329-.443a3.458,3.458,0,0,1-1.772-1.772c-.443,0-.886-.443-1.329-.886-.443,0-.886-.443-1.329-.886a6.114,6.114,0,0,1-1.329-1.772c-.886-.886-1.329-.886-2.214-2.214-.443-.443-.886-1.329-1.329-1.772a17.952,17.952,0,0,1-2.214-3.986c0-.443-.443-.886-.443-1.329-.443-1.329-1.329-2.214-1.329-3.543v-.443h0a4.816,4.816,0,0,1-.443-2.214V46.5a2.663,2.663,0,0,1-.443-1.772c0-.886.443-1.772,0-3.1-.443,0-.886-.443-.886,0v0c-.443,0-.443.443-.886.443-.443.886.443,1.772.443,2.657V46.5h0a19.182,19.182,0,0,1-.443,2.214V49.6c0,.886-.443,2.214-.443,3.1a1.627,1.627,0,0,0-.443,1.329c-.443,1.329-1.329,2.657-1.772,3.986a3.358,3.358,0,0,0-.886,1.772,27.127,27.127,0,0,0-1.772,2.657l-1.329,1.329c0,.443-.443.886-.886,1.329s-.886.443-.886.886c-.886.886-1.329.886-1.772,1.772-.443,0-.886.443-1.329.443-.443.443-1.329.886-1.772,1.329a6.114,6.114,0,0,0-1.772,1.329l-1.772.886c-.886.443-1.329.443-2.214.886h-.886a3.993,3.993,0,0,1-2.214.443.434.434,0,0,0-.443.443,6.567,6.567,0,0,0-3.1.443h-3.1a8.647,8.647,0,0,1-3.1-.443,3.993,3.993,0,0,1-2.214-.443c-.443-.443-1.329-.443-1.329-.886v-.443c.443-1.329,1.329-1.772,2.657-2.214.443-.443,1.329-1.329,1.772-.443h0c-.443-.886-.886-.886-1.329-.443l-1.329,1.329c-.443,0-.886.443-1.329.886l1.329-1.329a6.114,6.114,0,0,0,1.772-1.329c.443,0,.886,0,.886.443.886,1.772-.443,2.214.886,3.986h0c0-.443-.443-.886-.443-1.772v-.886c0-.886.443-.886,0-1.772-.443-.443-.443-.443.443-1.329a.434.434,0,0,0,.443-.443c.886-.886,2.214-1.772,3.1-2.657v9.3c.443,0,.443-.886.443-1.329,0-.886-.443-1.329,0-2.657V63.777h0l.443-.886c1.329-.886,2.214-1.772,3.543-2.657v-.443a2.663,2.663,0,0,0,.443,1.772v1.329c-.443,1.329,0,1.772,0,2.657-.443,1.329,0,2.214,0,3.1a6.567,6.567,0,0,1,.443,3.1h0V68.206a2.663,2.663,0,0,1-.443-1.772c0-.443.443-.886.443-1.772h0V59.348h0l2.214-2.214a4.422,4.422,0,0,0,2.214-1.772h0v5.315a8.647,8.647,0,0,1-.443,3.1,2.663,2.663,0,0,0,.443,1.772c.443,1.329-.443,2.214-.443,3.543v1.772h.443c0-.886.443-2.657.443-3.543V56.691c.443-1.329,0-.886.886-2.214.443-.443.443-.443,0-.443s-.886.443-1.329.443a4.816,4.816,0,0,1-2.214-.443H28.788a2.663,2.663,0,0,0-1.772-.443,1.627,1.627,0,0,0-1.329-.443c-.886-.443-2.214,0-3.1-.443H21.7c-.443,0-1.772-.443-2.214,0h.886a8.211,8.211,0,0,0,3.1.886h2.214c1.329.443,1.772.886,2.657.886,1.772.443,3.1.443,4.429.886h0A6.114,6.114,0,0,0,31,56.691a1.546,1.546,0,0,0-.886.443l-1.772,1.772H27.017a3.993,3.993,0,0,0-2.214-.443h-.886a10.424,10.424,0,0,0-3.543-.886H19.93c-.443,0-1.329-.443-1.772-.443H15.944a8.211,8.211,0,0,1,3.1.886h1.772c1.329.443,1.772.443,3.1.886a3.993,3.993,0,0,1,2.214.443H27.46a7.776,7.776,0,0,1-2.214,1.772,4.422,4.422,0,0,1-2.214,1.772c-.886,0-1.772-.443-3.1-.443a19.182,19.182,0,0,0-2.214-.443c-.886,0-2.214-.886-3.1-.886,0,0-.886.443-.443.443.886-.443,1.329,0,2.214.443a28.225,28.225,0,0,0,3.1.886,6.567,6.567,0,0,1,3.1.443,11.743,11.743,0,0,0-2.657,2.214c-1.329,1.329-1.772,1.772-3.986.886-.886,0-1.329-.443-2.214,0h.443a5.617,5.617,0,0,0,2.657.443s1.329.443.443.886l-.886.886a6.114,6.114,0,0,1-1.772,1.329c-.443,0-.443.443-.886.886h0c-.443.443-.886-.886-1.329-1.329V65.549a5.617,5.617,0,0,1,.443-2.657c0-.886,0-1.329.443-1.772V59.791c.443-.443.443-1.329.886-1.772,0-.443,0-.886.443-.886.443-.886.443-1.329.886-1.772,0-.443.443-.443.443-.886.443-.886.886-1.329,1.329-2.214,0-.443.443-.443.443-.886.886-.886.886-1.329,1.772-2.214l1.329-1.329a.434.434,0,0,0,.443-.443c.886-.886,1.772-.886,2.214-1.772.886-1.329,2.214-1.329,3.1-1.772V43.4a2.3,2.3,0,0,1,1.772-.886,1.627,1.627,0,0,1,1.329-.443,1.372,1.372,0,0,1,.886-.443c1.329-.443,1.772-.886,3.1-.886H34.1a1.627,1.627,0,0,0,1.329-.443h2.657a2.823,2.823,0,0,1,2.657,0h2.214c1.329,0,1.772.443,3.1.443.886.443,1.329.443.886,1.329h0c-.886.886-2.214,2.657-3.1,3.1-.886,0-2.657-.443-3.986-.443-.886,0-1.772-.443-2.657-.443a8.634,8.634,0,0,1-3.543-.443c-1.329,0-3.543-.886-4.872-.443h1.329c.886,0,1.329.443,1.772.443s.886.443,1.329.443a3.993,3.993,0,0,0,2.214.443H37.2a15.736,15.736,0,0,1,4.429.886h0c.443.443.886.886.443,1.329a.434.434,0,0,1-.443.443c.886-.443.443,0,0,0-.443.886-1.329,1.329-2.214,2.214-1.329,1.329-1.329,1.329-3.1.886a2.663,2.663,0,0,0-1.772-.443c-.443-.443-1.329-.443-1.772-.886-1.329-.443-2.214-.443-3.543-.886-.443,0-3.1-.886-3.543-.443h.443a8.211,8.211,0,0,1,3.1.886A15.866,15.866,0,0,1,34.1,50.49c.443,0,.886.443,1.329.443.886.886,1.329.443.443,1.772-.443.443-.886.886-1.329.886-.443.443,0,.443.443.443V53.59c.443,0,1.329-1.329,1.772-1.329s.443.443.443.886a3.783,3.783,0,0,1,0,3.1v1.772c-.443,1.329,0,2.657,0,4.429a2.663,2.663,0,0,1-.443,1.772s.443.886.443,0c.443-1.772,0-3.543.443-5.758V56.691a3.993,3.993,0,0,0,.443-2.214V51.819c0-.886.443-.886.886-1.329a.434.434,0,0,1,.443-.443c.443-.443.886-.443.886-.886.443-.443,2.214-2.214,3.1-1.772.443,0,.443.886.443,1.329,0,1.329.443,2.214,0,3.543a6.567,6.567,0,0,1-.443,3.1,19.182,19.182,0,0,1-.443,2.214v3.986a.613.613,0,0,0,0-.886V58.905c0-.886.443-1.772.443-2.657a11.267,11.267,0,0,0,.886-3.1c0-.886.443-1.329.443-2.214h0V49.161a7.537,7.537,0,0,1,.443-3.1c0-.443.443-.886.886-1.329l.443-.443h.443a2.3,2.3,0,0,1,1.772-.886c.443-.443.443-.886.886-1.329,0-.886.443-.886.443-.886.443,0,.443-.886.443-.886H49.6c-.443,0-.443-.443-.886-.443-.886-.443-2.657,0-3.1-.443-.886,0-.443-.443-1.772-.443-.886,0-2.214.443-3.1,0Z" fill="#010101"/>
</svg>
